:SAMPLES-PER-SECOND 30
:FULLY-SPECIFIED
:DEGREES
580
root  16.7237 37.418 3.4176 119.275 -83.5947 -125.994
RightUpLeg  -12.1491 -15.3015 4.00768
RightLeg  33.8532 -0.831469 -0.875276
RightFoot  -13.6051 -0.146511 -2.75685
RightToes  2.91037e-010 0 -3.6325e-017
Spine  11.7901 -3.29323 13.2265
Spine1  15.4139 -1.41484 0.997469
HEad  -8.85228 -29.8963 -0.315094
LeftShoulder1  0.12084 3.19361 -32.8438
LeftArm  -16.3273 1.97478 -33.6397
LeftForeArm  70.2266 -79.1687 -85.981
LeftHand  0.242861 -1.53127 -3.95255
RightShoulder  -0.676772 -5.32345 30.4499
RightArm  -13.2818 -12.3882 30.9686
RightForeArm  118.617 70.9679 144.678
RightHand  -0.513101 9.63224 -4.35374
LeftUpLeg  -13.6742 -6.48979 6.7891
LeftLeg  67.9018 -3.28039 -8.13141
LeftFoot  4.50042 0.561104 -4.21643
LeftToes  -7.53974e-010 3.3384e-011 -1.25048e-011
581
root  15.1604 37.8607 2.89995 121.074 -84.3193 -127.668
RightUpLeg  -7.70746 -16.3459 3.05848
RightLeg  30.6266 -0.229795 -0.421889
RightFoot  -14.755 -0.17664 -2.57686
RightToes  2.91037e-010 0 -3.6325e-017
Spine  11.5123 -2.64635 12.8983
Spine1  14.9311 -0.654367 0.00828877
HEad  -8.60076 -30.9397 0.184021
LeftShoulder1  0.113658 3.21225 -32.8744
LeftArm  -17.0779 2.49623 -33.0988
LeftForeArm  70.8267 -79.1806 -86.444
LeftHand  0.261221 -1.35551 -4.38623
RightShoulder  -0.610292 -5.17248 29.8008
RightArm  -12.8401 -12.0979 32.4882
RightForeArm  116.53 71.8157 142.626
RightHand  -0.57235 9.21139 -4.93092
LeftUpLeg  -17.5234 -6.02569 5.06289
LeftLeg  62.4132 -4.09287 -7.88286
LeftFoot  1.14736 0.358204 -3.36198
LeftToes  -7.53974e-010 3.3384e-011 -1.25048e-011
582
root  13.6155 38.2329 2.329 125.68 -84.519 -132.565
RightUpLeg  -2.58214 -16.3886 2.41545
RightLeg  26.7428 -0.00136152 -0.154463
RightFoot  -15.501 -0.192989 -2.42891
RightToes  2.91037e-010 0 -3.6325e-017
Spine  12.0643 -1.9198 12.6592
Spine1  14.128 0.369038 -1.46566
HEad  -8.57278 -31.9726 1.27353
LeftShoulder1  0.108121 3.22434 -32.5557
LeftArm  -17.5481 2.73899 -32.2199
LeftForeArm  71.3157 -79.1697 -87.3847
LeftHand  0.249231 -1.10035 -4.37197
RightShoulder  -0.67893 -5.33981 30.2614
RightArm  -12.3704 -11.3206 32.936
RightForeArm  114.517 72.5363 140.686
RightHand  -0.460551 8.03639 -4.33742
LeftUpLeg  -19.6531 -4.36772 3.88647
LeftLeg  53.8999 -4.59096 -6.32972
LeftFoot  -1.08392 0.273023 -2.95965
LeftToes  -7.53974e-010 3.3384e-011 -1.25048e-011
583
root  12.0431 38.5035 1.85935 128.376 -85.6709 -134.94
RightUpLeg  1.80792 -16.1245 0.939319
RightLeg  23.1198 -0.780179 0.451172
RightFoot  -16.2867 -0.209199 -2.29171
RightToes  2.91037e-010 0 -3.6325e-017
Spine  11.4981 -1.42418 11.4685
Spine1  13.9352 0.651113 -2.09976
HEad  -8.54015 -32.7721 1.38965
LeftShoulder1  0.0790673 3.29803 -32.3659
LeftArm  -18.1833 3.06194 -31.5402
LeftForeArm  72.4351 -79.1433 -89.3922
LeftHand  0.269188 -1.17784 -4.67114
RightShoulder  -0.652935 -5.28227 29.9765
RightArm  -12.594 -10.8798 33.5675
RightForeArm  114.853 72.8088 140.067
RightHand  -0.279653 6.55837 -3.051
LeftUpLeg  -21.0991 -2.98121 1.76617
LeftLeg  42.5025 -4.27369 -3.82067
LeftFoot  -2.07852 0.176829 -2.04379
LeftToes  -7.53974e-010 3.3384e-011 -1.25048e-011
584
root  10.4842 38.665 1.45411 125.773 -86.2386 -131.941
RightUpLeg  6.22294 -13.2685 0.692254
RightLeg  18.822 -4.05701 1.03401
RightFoot  -16.6753 -0.206926 -2.02242
RightToes  2.91037e-010 0 -3.6325e-017
Spine  11.0234 -1.157 11.5039
Spine1  13.7771 1.05695 -3.54136
HEad  -8.78589 -34.2688 2.02567
LeftShoulder1  0.124703 3.17681 -31.9734
LeftArm  -19.3028 3.26777 -31.1172
LeftForeArm  69.7831 -79.0646 -88.5018
LeftHand  0.275321 -0.927099 -4.99251
RightShoulder  -0.598482 -5.15184 29.5392
RightArm  -12.9585 -10.6627 34.2044
RightForeArm  114.853 73.0022 139.577
RightHand  -0.142856 5.4535 -1.85317
LeftUpLeg  -21.2411 -0.718418 0.296166
LeftLeg  28.7683 -4.47644 -2.27032
LeftFoot  -2.87016 0.193859 -2.38059
LeftToes  -7.53974e-010 3.3384e-011 -1.25048e-011
585
root  8.94555 38.6423 1.13597 102.648 -86.5212 -107.742
RightUpLeg  9.7425 -10.6943 1.64125
RightLeg  14.6667 -7.91895 1.76481
RightFoot  -17.2421 -0.185733 -1.3396
RightToes  2.91037e-010 0 -3.6325e-017
Spine  9.72162 -1.61676 12.346
Spine1  13.9888 0.795281 -5.27755
HEad  -10.4891 -26.5229 1.00571
LeftShoulder1  0.063713 3.33416 -31.4651
LeftArm  -20.4285 3.38139 -30.7388
LeftForeArm  70.2792 -79.0518 -89.3347
LeftHand  0.260581 -0.81295 -4.8225
RightShoulder  -0.525738 -4.96056 29.247
RightArm  -12.4359 -9.83312 34.764
RightForeArm  112.316 73.3154 138.358
RightHand  -0.0919144 5.088 -1.32513
LeftUpLeg  -21.5576 0.439764 -0.91707
LeftLeg  14.5743 -5.58129 -1.33964
LeftFoot  -3.08052 0.240968 -3.08507
LeftToes  -7.53974e-010 3.3384e-011 -1.25048e-011
586
root  7.34811 38.41 0.922287 62.1533 -85.6898 -65.9141
RightUpLeg  12.7155 -9.53374 2.9496
RightLeg  11.3457 -11.5723 2.65322
RightFoot  -18.3889 -0.153677 -0.489786
RightToes  2.91037e-010 0 -3.6325e-017
Spine  7.74567 -2.61751 13.5192
Spine1  14.3719 -0.171065 -6.57834
HEad  -15.3185 3.7769 -5.40616
LeftShoulder1  0.0494741 3.37064 -31.0551
LeftArm  -21.0533 4.15242 -30.197
LeftForeArm  75.4459 -78.997 -94.9081
LeftHand  0.223826 -0.463596 -4.41416
RightShoulder  -0.479996 -4.84242 28.9514
RightArm  -11.5564 -9.10474 34.8412
RightForeArm  109.158 73.327 137.821
RightHand  -0.077327 4.97922 -1.17194
LeftUpLeg  -22.2017 -1.86007 -1.92958
LeftLeg  2.72925 -5.01303 0.2104
LeftFoot  -3.70467 0.340633 -4.74882
LeftToes  -7.53974e-010 3.3384e-011 -1.25048e-011
587
root  5.66022 38.0117 0.698098 47.0767 -84.3302 -50.3899
RightUpLeg  15.8736 -9.65796 3.66336
RightLeg  10.0259 -12.8787 3.26186
RightFoot  -20.2251 -0.0824246 0.703926
RightToes  2.91037e-010 0 -3.6325e-017
Spine  6.5628 -3.37567 14.1919
Spine1  14.8896 -0.732369 -7.81612
HEad  -15.242 1.63735 -4.79471
LeftShoulder1  0.04813 3.37185 -30.3224
LeftArm  -21.4279 4.82302 -29.673
LeftForeArm  79.9852 -78.7592 -101.163
LeftHand  0.170511 0.445209 -4.1174
RightShoulder  -0.415403 -4.67663 28.426
RightArm  -10.7892 -8.32303 35.6731
RightForeArm  105.506 73.5036 136.745
RightHand  -0.0941826 4.40474 -1.38465
LeftUpLeg  -23.1061 -3.03491 -2.97824
LeftLeg  -2.00751 -1.85818 0.908213
LeftFoot  -5.26112 0.293516 -4.9408
LeftToes  -7.53974e-010 3.3384e-011 -1.25048e-011
588
root  3.86128 37.5835 0.311975 53.069 -85.4332 -57.4537
RightUpLeg  19.8895 -10.8677 2.24955
RightLeg  11.1646 -9.68396 3.25224
RightFoot  -22.2783 0.046426 2.04435
RightToes  2.91037e-010 0 -3.6325e-017
Spine  7.36841 -2.68368 12.5641
Spine1  15.8104 0.21461 -7.91306
HEad  -15.2609 0.93247 -3.25711
LeftShoulder1  0.0372042 3.4 -29.7383
LeftArm  -21.2054 4.83319 -28.5381
LeftForeArm  82.8403 -78.3898 -106.587
LeftHand  0.117687 1.66804 -3.9828
RightShoulder  -0.378709 -4.58534 27.9605
RightArm  -10.4761 -8.03986 36.6916
RightForeArm  101.396 73.6268 135.742
RightHand  -0.0415086 3.31061 -0.816456
LeftUpLeg  -22.9685 -2.30447 -3.47721
LeftLeg  0.512539 3.36099 -0.0672701
LeftFoot  -5.62937 0.322999 -5.43498
LeftToes  -7.53974e-010 3.3384e-011 -1.25048e-011
589
root  2.03506 37.2218 -0.0982813 79.6406 -86.8535 -85.4147
RightUpLeg  23.8511 -14.6127 -1.45678
RightLeg  13.8918 -2.22008 2.7257
RightFoot  -23.5669 0.347616 4.72533
RightToes  2.91037e-010 0 -3.6325e-017
Spine  8.87624 -1.382 10.0592
Spine1  16.7797 1.71011 -7.60637
HEad  -15.5704 0.92081 -2.7941
LeftShoulder1  0.0301969 3.41851 -29.2592
LeftArm  -20.675 4.98617 -27.4756
LeftForeArm  87.7687 -77.9458 -112.306
LeftHand  0.0627094 2.48097 -3.14725
RightShoulder  -0.348987 -4.50691 27.6703
RightArm  -10.0431 -8.60817 37.23
RightForeArm  98.5081 73.1415 136.735
RightHand  -0.0712867 1.94536 -1.28208
LeftUpLeg  -23.2968 -1.04863 -4.43463
LeftLeg  7.67259 4.28558 0.262339
LeftFoot  -1.92113 -0.0572969 -0.444176
LeftToes  -7.53974e-010 3.3384e-011 -1.25048e-011
